<svg xmlns="http://www.w3.org/2000/svg" data-name="Layer 1" viewBox="0 0 512 512" id="artificial-intelligence">
    <path fill="#fedb41"
        d="M484.43,102.48V264.47H372.62l-65.28,47.05V264.47H266.53V102.48h217.9ZM425.84,224.3v-78c0-3.36-3.96-4.8-7.8-4.8-3.96,0-7.8,1.44-7.8,4.8v78c0,3.24,3.84,4.92,7.8,4.92C421.88,229.22,425.84,227.54,425.84,224.3Zm-35.88-1.56a5.281,5.281,0,0,0-.24-1.2l-23.16-75.48c-1.08-3.6-5.52-5.28-10.08-5.28-4.44,0-8.88,1.68-9.96,5.28l-23.16,75.48a6.907,6.907,0,0,0-.24,1.2c0,3.84,5.64,6.48,9.84,6.48,2.64,0,4.68-.84,5.28-3.12l4.56-15.96h27.48l4.56,15.96c.6,2.28,2.64,3.12,5.28,3.12C384.32,229.22,389.96,226.46,389.96,222.74Z">
    </path>
    <path fill="#f7caa5"
        d="M204.43,414.9l-64.15,1.97a39.992,39.992,0,0,1-41.23-39.58l-.8-79.47H27.57L97.64,186.96C97.64,99.91,180.4,29,271.61,29,330.5,29,387.8,58.3,419.2,102.38v.1H266.53V264.47h40.81v47.05l65.28-47.05h66.19v.2c-3.3,24.54-7.05,48.09-9.14,66.98L428.83,483H204.46V415.94Z">
    </path>
    <polygon fill="#fedb41" points="356.48 161.06 366.92 197.9 346.04 197.9 356.48 161.06"></polygon>
    <path fill="#083863"
        d="M332.96 229.72c4 0 5.344-1.719 5.761-3.3L343.177 211H369.9l4.453 15.407c.42 1.594 1.76 3.4 5.764 3.4 4.116 0 10.34-2.828 10.34-7.025a4.167 4.167 0 0 0-.182-1.061l-.08-.319-23.159-75.483c-1.247-4.156-6.272-5.639-10.559-5.639-4.036 0-9.191 1.474-10.438 5.632l-23.17 75.516a6.446 6.446 0 0 0-.252 1.31C322.62 227 328.744 229.72 332.96 229.72zm23.52-67.226L366.258 197H346.7zM418 229.72c4.125 0 8-1.862 8-5.42v-78c0-3.661-3.869-5.3-8-5.3-3.829 0-8 1.388-8 5.3v78C410 228.024 414 229.72 418 229.72z">
    </path>
    <path fill="#083863"
        d="M484.43,94H423.309C389.644,50,330.6,20.76,271.61,20.76c-45.922,0-92.034,17.748-126.512,48.485-35.125,31.313-54.751,72.22-55.439,115.309L20.808,293.515a8.193,8.193,0,0,0-.245,8.24A8.1,8.1,0,0,0,27.57,306H90.33l.72,71.459A47.955,47.955,0,0,0,139,424.912c.506,0,.783-.019,1.291-.035L196,423.147V483c0,4.418,4.042,8,8.46,8H428.83a8,8,0,0,0,8-7.956l.837-150.929c1.3-11.608,3.233-25.346,5.283-39.633.946-6.6,1.917-13.482,2.869-20.482H484.43a7.253,7.253,0,0,0,7.57-7.53V102.48C492,98.062,488.849,94,484.43,94ZM427.112,290.21c-2.093,14.588-4.07,28.484-5.394,40.442-.03.278-.047.616-.048.9L420.875,475H212V422.655l56.156-1.719a8.1,8.1,0,0,0,7.865-8.242,7.942,7.942,0,0,0-8.185-7.75l-127.831,3.93a31.98,31.98,0,0,1-32.963-31.665l-.8-79.38a7.92,7.92,0,0,0-8-7.829H42.09L104.4,191.324a8.156,8.156,0,0,0,1.237-4.319c0-39.327,17.794-76.87,50.105-105.674,31.586-28.159,73.817-44.56,115.865-44.56C321.35,36.771,371.058,59,402.628,94H266.53c-4.419,0-7.53,4.062-7.53,8.48V264.47a7.22,7.22,0,0,0,7.53,7.53H299v39.52a8.162,8.162,0,0,0,4.524,7.121,7.687,7.687,0,0,0,8.451-.866L375.2,272h54.461C428.815,279,427.955,284.339,427.112,290.21ZM476,256H372.62a8.776,8.776,0,0,0-4.848,1.745L315,295.893V264.47c0-4.418-3.242-8.47-7.66-8.47H275V110H476Z">
    </path>
</svg>