<svg xmlns="http://www.w3.org/2000/svg" viewBox="0 0 64 64" id="augmented-reality">
    <path fill="#e6f3ff"
        d="M26.06769,47.04177h6.00003c7.7268,0,13.99999,6.27318,13.99999,13.99999H12.06771c0-7.7268,6.27318-13.99999,13.99999-13.99999Z">
    </path>
    <path fill="#21257c"
        d="M26.42684,44.04177h5v2.5c0,1.37979-1.12021,2.5-2.5,2.5h0c-1.37979,0-2.5-1.12021-2.5-2.5v-2.5h0Z"></path>
    <path fill="#e6f3ff"
        d="M42.92684,11.04177H14.92684V30.04177h.02527c-.00592,.16736-.02527,.33118-.02527,.5,0,7.73199,6.26807,14,14,14s14-6.26801,14-14c0-.16882-.01935-.33264-.02527-.5h.02527V11.04177Z">
    </path>
    <path fill="#4aa5ff"
        d="M14.56771,20.04177c-3.60614-2.69019-4.50604-6.77631-3-9,1.11328-1.6438,3.315-1.93594,4-2,1.55603-1.56259,4.19568-3.74646,8-5,9.38214-3.09149,17.70892,2.15701,19,3,.33331-.33334,.66669-.66666,1-1,1.05115,1.02277,2.10327,2.42825,2,4-.26282,4.00031-7.88177,7.12881-14,7-5.12311-.10788-8.99225-2.49542-11-4-.73157,.05731-1.87439,.26102-3,1-2.90216,1.90527-2.99622,5.59995-3,6Z">
    </path>
    <path fill="#e6f3ff"
        d="M47.92686,23.04177c-.34516-1.89943-.89399-3.51718-1.45094-4.81581-.31102-.7252-1.03708-1.18421-1.82616-1.18421H13.20396c-.78908,0-1.51514,.45901-1.82616,1.18421-.55695,1.29863-1.10578,2.91637-1.45094,4.81581-.43605,2.39966-.41644,4.53136-.24846,6.22113,.10095,1.01545,.96885,1.7789,1.98931,1.7789l11.68727-.00002c.83416,0,1.52381-.56374,1.80508-1.34905,.55352-1.54539,2.03103-2.65095,3.76681-2.65095s3.21329,1.10556,3.76681,2.65095c.28128,.78531,.97092,1.34905,1.80508,1.34905l11.68727,.00002c1.02045,0,1.88836-.76345,1.98931-1.7789,.16798-1.68977,.18759-3.82147-.24846-6.22113Z">
    </path>
    <path fill="#4aa5ff"
        d="M35.85206 28.04199c-.36885 0-.69307-.21159-.8794-.52992-1.23896-2.11658-3.53298-3.47008-6.0459-3.47008-2.51202 0-4.80597 1.3535-6.04492 3.47008-.18633.31833-.51055.52992-.87941.52992H13.57119c-.54339 0-1.00254-.43387-1.00338-.97726-.00179-1.17047.10175-2.3375.31109-3.48661.17706-.9746.43024-1.93768.75594-2.87681.13808-.39815.52297-.65932.94439-.65932h28.69605c.42141 0 .80629.26117.94438.6593.32566.9389.57868 1.90147.75495 2.87683.20933 1.14978.31347 2.3163.31195 3.48646-.0007.54345-.45994.97741-1.00339.97741h-8.43111zM51.61035 18.02344c.13825.08915 2.95654-1.11727 3.15821-1.17185 1.21378-.501.49569-2.32583-.73442-1.85938.00004-.00002-2.79098 1.10155-2.79098 1.10155-1.01875.38464-.70575 1.95051.36719 1.92969zM51.16113 11.06543c-.50879-.22168-1.09668.0127-1.31543.51855l-1.19531 2.75195c-.2207.50684.01172 1.0957.51855 1.31543.49417.21833 1.09611-.00712 1.31543-.51856 0 0 1.19531-2.75195 1.19531-2.75195.2207-.50684-.01172-1.0957-.51855-1.31543zM54.83105 20.36816l-2.75195-1.19531c-1.21462-.50846-1.99347 1.29288-.79684 1.834.24954.07678 2.94431 1.36555 3.14936 1.27834 1.05398.02155 1.38998-1.50559.39943-1.91703z">
    </path>
    <path fill="#21257c"
        d="M47.39453,17.77344c-.56462-1.3879-2.03705-1.92964-3.46484-1.79102v-1.72357c1.52875-1.20581,2.53363-2.63824,2.63867-4.2149,.09961-1.57715-.67285-3.18457-2.29785-4.77734-.39062-.38477-1.01855-.38184-1.40723,.00684l-.4375,.4375C35.96713,1.55708,23.69505-.62029,15.11035,8.02832c-4.80256,.54554-6.49833,4.89992-4.27264,9.11273-1.98207,3.66368-2.50779,8.04213-2.15424,12.16164,.15149,1.52738,1.4347,2.67973,2.9845,2.67973h2.35431c.63354,6.45758,5.27594,11.62622,11.40741,13.07611v.95312c-7.81412,.15569-14.52039,7.15724-14.35925,14.96892-.00013,.55262,.44714,.99989,.99987,.99989H46.07031c.55273,0,1-.44727,1-1,0-8.15021-6.53607-14.78845-14.64062-14.98181v-.94006c6.13165-1.44989,10.77484-6.61853,11.40839-13.07617h2.34747c1.54883,0,2.83301-1.15137,2.98535-2.67969,.39297-3.92507-.21923-7.90999-1.77637-11.5293Zm-5.46484-1.79102h-.86353c.29572-.13727,.58417-.27911,.86353-.42834v.42834ZM12.39844,11.54102c.78125-1.1543,2.38477-1.47656,3.27148-1.56543,.23145-.02344,.44629-.12598,.61035-.29004,8.37762-8.66408,20.24981-5.6861,25.74414-1.86693,.53558,.36434,1.15361,.06888,1.51758-.39577,4.00399,4.66028-4.96203,8.49626-11.60146,8.55773-4.55669,.04623-8.5257-2.08262-10.76962-3.79994-.19532-.14646-.43556-.21287-.68165-.19724-2.61877,.20178-4.76735,1.64528-5.9231,3.99902-.47904,.01374-1.59096-.05111-2.04248,.08472-.81335-1.66193-.87982-3.41003-.12524-4.52612Zm11.16211,4.44141h-6.66711c.82974-1.10944,2.00028-1.77222,3.39758-1.96582,.90851,.65802,2.00757,1.34778,3.26953,1.96582Zm21.47168,43.99805H13.1084c.36924-6.47376,6.17053-11.9873,12.67932-11.98627,1.16699,2.61344,5.13182,2.60787,6.28943-.01343,6.82886,.00354,12.44257,5.29883,12.95508,11.99969Zm-14.60254-13.5c-.00441,1.78114-2.59799,2.04342-2.9668,.3144-.06456-.21631-.02073-1.15175-.0332-1.38752,.98354,.09728,2.01646,.09728,3,0v1.07312Zm-1.5-3c-6.69,0-12.16394-4.97375-12.9035-11.49805h7.32831c1.23145,0,2.30957-.78906,2.74707-2.01172,.87693-2.61362,4.77434-2.61374,5.65038,.00011,.43751,1.22254,1.51563,2.01161,2.74708,2.01161h7.33514c-.73969,6.52429-6.21448,11.49805-12.90448,11.49805Zm18.25098-14.37598c-.0498,.50098-.47754,.87793-.99512,.87793-.01005,.00001-3.22891-.00002-3.23734,0-.00003,0-8.44918,0-8.44918,0-.37598,0-.71484-.26953-.86426-.68555-.70898-1.98242-2.60059-3.31445-4.70801-3.31445-2.10645,0-3.99805,1.33203-4.70801,3.31445-.14941,.41602-.48828,.68555-.86426,.68555H14.91229c-.00853-.00002-3.23415,.00001-3.24435,0-.51756,0-.94431-.37695-.99412-.87695-.36053-3.59265,.19961-7.22994,1.62305-10.54492,.15039-.35156,.50683-.57813,.90722-.57813h31.44531c.40039,0,.75684,.22656,.90723,.5791,1.42397,3.31069,1.98351,6.95367,1.62402,10.54297Z">
    </path>
    <path fill="#4aa5ff"
        d="M26.84473,39.02148c-.57715-.16602-1.66797-.60254-2.48926-1.6543-.77805-.70783-.62644-2.66128-2.0527-2.34868-.53324,.14555-.84574,.69634-.69925,1.22856,.41322,2.2906,3.30182,4.63332,4.96399,4.73524,1.12677,.01471,1.37993-1.65347,.27722-1.96082Z">
    </path>
</svg>