<svg xmlns="http://www.w3.org/2000/svg" viewBox="0 0 512 512" id="co-2">
    <linearGradient id="a" x1="112.93" x2="424.26" y1="456.316" y2="144.986" gradientUnits="userSpaceOnUse">
        <stop offset=".049" stop-color="#00a683"></stop>
        <stop offset="1" stop-color="#fff05d"></stop>
    </linearGradient>
    <path fill="url(#a)"
        d="M42.194 354.937a49.45 49.45 0 0 1-15.511-17.412 3.255 3.255 0 0 1 1.346-4.404c1.58-.85 3.557-.244 4.404 1.346a42.884 42.884 0 0 0 13.46 15.106 3.26 3.26 0 0 1 .832 4.532 3.26 3.26 0 0 1-4.531.832zm-17.208-31.376a3.255 3.255 0 0 0 2.768-3.679c-.366-2.595-.473-5.463-.31-8.292a3.259 3.259 0 0 0-3.064-3.44c-1.796-.048-3.338 1.267-3.44 3.064-.188 3.254-.061 6.567.366 9.58.257 1.82 1.957 3.026 3.68 2.767zm471.974 63.335a83.488 83.488 0 0 1-6.845 5.717 3.254 3.254 0 0 0-.659 4.557 3.253 3.253 0 0 0 4.557.659 89.218 89.218 0 0 0 7.384-6.165 3.257 3.257 0 0 0 .165-4.603 3.263 3.263 0 0 0-4.602-.165zm-21.047 14.508c-15.34 7.682-32.049 10.768-49.846 9.048-1.776-.183-3.382 1.135-3.555 2.929a3.257 3.257 0 0 0 2.929 3.555c19.019 1.839 36.951-1.472 53.388-9.71a3.254 3.254 0 0 0 1.453-4.369 3.252 3.252 0 0 0-4.369-1.453zM72.135 185.285a3.255 3.255 0 0 0 4.394-1.377 83.461 83.461 0 0 1 4.689-7.895 3.258 3.258 0 0 0-5.405-3.638 90.555 90.555 0 0 0-5.056 8.516 3.255 3.255 0 0 0 1.378 4.394zm19.691-22.455c11.626-12.01 26.254-20.549 42.299-24.697a3.257 3.257 0 0 0-1.629-6.305c-17.208 4.445-32.89 13.6-45.352 26.473a3.256 3.256 0 1 0 4.682 4.529zm343.622 233.76c-10.694 0-21.371-2.272-31.068-6.593-25.674 41.108-85.3 42.541-112.923 2.496-30.715 40.813-92.825 38.481-120.322-4.463-25.388 38.76-82.923 36.924-105.755-3.544C28.574 381.804.008 351.235.008 314.099c0-43.56 39.371-77.157 82.947-69.53-16.881-65.627 54.567-118.317 112.111-84.626 23.92-43.06 68.983-69.665 118.442-69.665 82.488 0 145.642 73.301 134.187 154.222 36.887 5.903 64.298 37.803 64.298 75.545 0 42.208-34.337 76.545-76.545 76.545zm-30.913-13.715c9.646 4.779 20.048 7.201 30.913 7.201 38.615 0 70.031-31.416 70.031-70.031 0-35.566-26.602-65.461-61.881-69.535a3.259 3.259 0 0 1-2.837-3.776c13.077-77.967-47.522-149.942-127.254-149.942-48.195 0-92 26.534-114.328 69.245a3.257 3.257 0 0 1-4.661 1.221c-54.708-35.573-125.011 18.589-103.786 80.601.842 2.449-1.399 4.864-3.896 4.206C45.963 241.506 6.52 272.431 6.52 314.099c0 34.271 26.798 62.38 61.006 63.991a3.26 3.26 0 0 1 2.73 1.738c20.75 39.439 77.087 39.541 98.015.267 1.22-2.292 4.513-2.303 5.745-.01 23.885 44.47 86.999 47.429 114.844 4.771 1.321-2.018 4.312-1.96 5.539.137 23.736 40.582 82.773 40.151 105.852-.796a3.258 3.258 0 0 1 4.284-1.322zM239.242 225.381c-7.778-4.259-16.608-6.511-25.534-6.511-29.35 0-53.23 23.88-53.23 53.23s23.88 53.23 53.23 53.23c7.633 0 15.007-1.583 21.913-4.707a3.253 3.253 0 0 0 1.626-4.308 3.245 3.245 0 0 0-4.308-1.626c-6.058 2.738-12.529 4.127-19.231 4.127-25.76 0-46.716-20.956-46.716-46.716s20.956-46.716 46.716-46.716c7.834 0 15.582 1.975 22.404 5.712a3.259 3.259 0 0 0 3.13-5.715zM354.501 272.1c0 29.35-23.88 53.23-53.233 53.23-29.35 0-53.23-23.88-53.23-53.23s23.88-53.23 53.23-53.23c29.353 0 53.233 23.879 53.233 53.23zm-6.514 0c0-25.76-20.959-46.716-46.719-46.716s-46.716 20.956-46.716 46.716 20.956 46.716 46.716 46.716c25.761 0 46.719-20.956 46.719-46.716zm34.086 55.952c5.035-3.588 8.277-6.99 9.916-10.399 3.927-8.17-1.799-18.569-14.389-18.569-4.926 0-9.61 1.038-13.918 3.086a3.258 3.258 0 0 0 2.799 5.883c3.425-1.628 7.168-2.455 11.119-2.455 7.59 0 10.43 5.26 8.516 9.236-1.132 2.359-3.766 5.02-7.822 7.911-5.259 3.735-11.594 7.58-14.776 12.768-3.889 6.373-1.071 9.743 3.812 9.743h22.31a3.257 3.257 0 1 0 0-6.514h-20.457c2.457-3.831 8.319-7.449 12.89-10.69z">
    </path>
</svg>