<svg xmlns="http://www.w3.org/2000/svg" width="32" height="32" version="1" id="green">
    <path fill="#5dc560" fill-rule="evenodd" d="M32 16c0 8.86-7.14 16-16 16S0 24.86 0 16 7.14 0 16 0s16 7.14 16 16z"
        clip-rule="evenodd"></path>
    <path fill="#fff"
        d="M9.98 6c-.137 0-.205.137-.205.344v2.405c0 .206.137.344.343.344.207 0 .344-.206.344-.344V6.687h2.062V8.818c0 .206.137.344.343.344.207 0 .344-.207.344-.344V8.13h1.375v1.237c-.138.206.068.48.343.48h1.031v5.155h-1.03c-.07 0-.138.07-.207.138-.137-.069-.137 0-.137.069V16.997c-.138 0-.206 0-.344-.07a2.958 2.958 0 0 0-1.1 0v-1.649c0-.206-.137-.343-.343-.343h-.069c-.206 0-.344.206-.275.343v1.719a5.176 5.176 0 0 0-2.062.756V15.21c0-.207-.206-.413-.412-.344-.138.069-.206.275-.206.412v3.162c-.275.275-.481.618-.688.962v-8.591h1.444c0 .206 0 .481.068.687.275 1.1 1.444 1.787 2.543 1.444 1.1-.275 1.787-1.444 1.444-2.543 0-.07-.069-.07-.069-.138l-.069-.069H8.675c-.206-.068-.275.138-.275.275v10.378s0 .07.069.07c0 .068.069.137.069.137.068.068.206.068.275.068h.274c1.1-.618 2.131-.55 3.23-.206.62.206 1.238.619 1.788.894-1.65-.07-3.368-.207-4.811.824-.138.138-.207.344-.07.481C10.532 24.694 12.594 26 15.686 26c2.268 0 3.918-.756 5.155-1.924 1.237-1.169 2.062-2.75 2.75-4.468.068-.275-.207-.55-.482-.412h-.275v-6.667c0-.206-.206-.343-.344-.343h-1.718V9.093c0-.206-.206-.344-.343-.344h-4.262c-.137 0-.206.206-.206.344h-.687V7.718c0-.206-.206-.343-.344-.343h-1.718V6.344c0-.207-.137-.344-.344-.344H9.981zm7.492 4.124h1.581c.206 0 .344.137.344.343 0 .207-.206.344-.344.344h-1.375c-.206.069-.412-.069-.48-.206 0-.206.068-.481.274-.481zm-7.766 1.374v.688h.687v-.688h-.687zm5.086 0v.688h.687v-.688h-.687zm2.68 0h1.581c.206 0 .344.138.344.344 0 .206-.206.344-.344.344h-1.375c-.206.068-.412-.07-.48-.207-.07-.137.068-.412.274-.48zm-3.23 1.237-.481.481.481.482.481-.482-.48-.48zm-3.436.07-.481.48.48.481.482-.48-.481-.482zm6.666.068h1.581c.206 0 .344.137.344.343 0 .207-.206.344-.344.344h-1.375c-.206.069-.412-.069-.48-.206 0-.206.068-.412.274-.481zm-5.292.481v.687h.687v-.687h-.687zm8.248.206h2.061v.687h-2.061v-.687zm-2.956.687h1.581c.206 0 .344.138.344.344 0 .206-.206.344-.344.344h-1.375c-.206.068-.412-.069-.48-.206-.07-.138.068-.413.274-.482zm2.956.688h2.061v.687h-2.061v-.687zm-5.155.687h.687v1.787c-.206-.069-.48-.138-.687-.206v-1.581zm2.2 0h1.58c.206 0 .344.137.344.344 0 .206-.206.343-.344.343h-1.375c-.206.069-.412-.068-.48-.206 0-.206.068-.412.274-.481zm2.955.687h2.061v.688h-2.061v-.688zm-2.956.688h1.581c.206 0 .344.137.344.343 0 .206-.206.344-.344.344h-1.375c-.206.069-.412-.069-.48-.206-.07-.138.068-.413.274-.481zm2.956.687h2.061v.687h-2.061v-.687z">
    </path>
</svg>