<svg xmlns="http://www.w3.org/2000/svg" enable-background="new 0 0 512 512" version="1" viewBox="0 0 512 512"
    id="machine">
    <path fill="#69BD45" d="M287.2,66.3v74.5H69.1V66.3c0-9.1,7.4-16.5,16.5-16.5h185.1c8.5,0,15.6,6.5,16.4,14.8
					C287.1,65.2,287.2,65.8,287.2,66.3z"></path>
    <path fill="#030303" d="M279.7,66.3c0,24.8,0,49.7,0,74.5c2.5-2.5,5-5,7.5-7.5c-48.1,0-96.2,0-144.4,0c-24.6,0-49.1,0-73.7,0
						c2.5,2.5,5,5,7.5,7.5c0-24,0-48.1,0-72.1c0-5.1,1.6-10.6,7.6-11.3c1.7-0.2,3.5-0.1,5.3-0.1c9.5,0,19,0,28.5,0
						c50.9,0,101.8,0,152.6,0C275.7,57.3,279.4,61.3,279.7,66.3c0.5,9.6,15.5,9.7,15,0c-0.6-13.4-10.5-23.4-24-24
						c-1.4-0.1-2.8,0-4.2,0c-9.6,0-19.3,0-28.9,0c-31.5,0-63,0-94.6,0c-19.1,0-38.2,0-57.3,0c-11.1,0-20.3,7.6-23.3,18
						c-1.2,4-0.7,8.7-0.7,12.8c0,15,0,30,0,45c0,7.5,0,15.1,0,22.6c0,4.1,3.4,7.5,7.5,7.5c48.1,0,96.2,0,144.4,0
						c24.6,0,49.1,0,73.7,0c4.1,0,7.5-3.4,7.5-7.5c0-24.8,0-49.7,0-74.5C294.7,56.7,279.7,56.7,279.7,66.3z"></path>
    <rect width="93.5" height="44.7" x="309" y="185.9" fill="#0D71BA"></rect>
    <path fill="#030303" d="M394.9,185.9c0,14.9,0,29.8,0,44.7c2.5-2.5,5-5,7.5-7.5c-31.2,0-62.3,0-93.5,0c2.5,2.5,5,5,7.5,7.5
						c0-14.9,0-29.8,0-44.7c-2.5,2.5-5,5-7.5,7.5c31.2,0,62.3,0,93.5,0c9.7,0,9.7-15,0-15c-31.2,0-62.3,0-93.5,0
						c-4.1,0-7.5,3.4-7.5,7.5c0,14.9,0,29.8,0,44.7c0,4.1,3.4,7.5,7.5,7.5c31.2,0,62.3,0,93.5,0c4.1,0,7.5-3.4,7.5-7.5
						c0-14.9,0-29.8,0-44.7C409.9,176.2,394.9,176.2,394.9,185.9z"></path>
    <path fill="#6FCCDD" d="M138.2,225.3c0,7.1-3.1,13.5-8.1,17.9c-1.7,1.5-3.7,2.8-5.8,3.8c-3.1,1.4-6.5,2.2-10,2.2
					c-9.2,0-17.2-5.2-21.2-12.9c-1.8-3.3-2.7-7.1-2.7-11.1s1-7.8,2.7-11.1c4-7.6,12-12.9,21.2-12.9c0.4,0,0.7,0,1.1,0
					c3.2,0.1,6.2,0.9,8.9,2.2C132.5,207.3,138.2,215.6,138.2,225.3z"></path>
    <path fill="#030303" d="M130.7,225.3c-0.3,9.9-8.2,16.7-18,16.4c-9.5-0.3-15.2-9.5-14.9-18.1c0.3-9,9.2-15,17.5-14.7
						C124.1,209.1,130.4,217,130.7,225.3c0.3,9.7,15.3,9.7,15,0c-0.5-16-12.4-30-28.8-31.3c-16.8-1.3-32.1,11-33.9,27.9
						c-1.8,17.2,10.9,33,28.2,34.6c18.6,1.8,33.9-13,34.5-31.3C146,215.6,131,215.6,130.7,225.3z"></path>
    <polygon fill="#544741"
        points="309 185.9 309 230.6 360.9 230.6 360.9 322 287.2 322 287.2 110.1 360.9 110.1 360.9 185.9"></polygon>
    <path fill="#030303" d="M301.5,185.9c0,14.9,0,29.8,0,44.7c0,4.1,3.4,7.5,7.5,7.5c17.3,0,34.6,0,51.9,0c-2.5-2.5-5-5-7.5-7.5
						c0,30.5,0,60.9,0,91.4c2.5-2.5,5-5,7.5-7.5c-24.6,0-49.2,0-73.7,0c2.5,2.5,5,5,7.5,7.5c0-48.7,0-97.3,0-146c0-22,0-43.9,0-65.9
						c-2.5,2.5-5,5-7.5,7.5c24.6,0,49.2,0,73.7,0c-2.5-2.5-5-5-7.5-7.5c0,25.3,0,50.5,0,75.8c2.5-2.5,5-5,7.5-7.5
						c-17.3,0-34.6,0-51.9,0c-9.7,0-9.7,15,0,15c17.3,0,34.6,0,51.9,0c4.1,0,7.5-3.4,7.5-7.5c0-25.3,0-50.5,0-75.8
						c0-4.1-3.4-7.5-7.5-7.5c-24.6,0-49.2,0-73.7,0c-4.1,0-7.5,3.4-7.5,7.5c0,48.7,0,97.3,0,146c0,22,0,43.9,0,65.9
						c0,4.1,3.4,7.5,7.5,7.5c24.6,0,49.2,0,73.7,0c4.1,0,7.5-3.4,7.5-7.5c0-30.5,0-60.9,0-91.4c0-4.1-3.4-7.5-7.5-7.5
						c-17.3,0-34.6,0-51.9,0c2.5,2.5,5,5,7.5,7.5c0-14.9,0-29.8,0-44.7C316.5,176.2,301.5,176.2,301.5,185.9z"></path>
    <path fill="#EC2127" d="M482.9,110.1h-122v75.8h41.5v44.7h-41.5V322h122c9.5,0,17.1-7.7,17.1-17.1V127.2
					C500,117.8,492.4,110.1,482.9,110.1z M469.7,274.2c-1.5,10.5-10.6,18.7-21.6,18.7c-12,0-21.8-9.8-21.8-21.8
					c0-10.5,7.5-19.3,17.4-21.4h0c1.4-0.3,2.9-0.4,4.4-0.4c12,0,21.8,9.8,21.8,21.8C469.9,272.1,469.8,273.2,469.7,274.2z
					 M458.2,227.1L458.2,227.1c-3,1.6-6.4,2.4-10,2.4c-12,0-21.8-9.8-21.8-21.8c0-12,9.8-21.8,21.8-21.8c6.1,0,11.6,2.5,15.5,6.5h0
					c3.9,3.9,6.3,9.3,6.3,15.3C469.9,216.1,465.2,223.4,458.2,227.1z"></path>
    <path fill="#030303"
        d="M458.2 219.6c-3.4 0-6.5 2.3-10 2.4-2.7.1-5.3-.8-7.6-2.2-4.8-2.7-7.4-8.8-6.6-14.2.9-5.9 5.2-10.2 10.8-11.8 2.8-.8 6.2-.5 8.9.6 3.6 1.5 5.8 5.5 10 5.5-1.8-.7-3.5-1.5-5.3-2.2 6.8 7.4 4.5 18.1-4 22.9-8.4 4.7-.9 17.7 7.6 13 8.5-4.8 14.3-13.2 15.3-22.9.5-5.4-.4-11-2.8-15.8-2.1-4.1-5.5-9.9-10.8-9.9 1.8.7 3.5 1.5 5.3 2.2-16.8-16-46-7.8-49.7 15.9-1.6 10.2 2.1 20.5 10.1 27.2 9.4 7.9 21.8 8.5 32.6 3.4-1.3.3-2.5.7-3.8 1 0 0 0 0 0 0C467.8 234.6 467.8 219.6 458.2 219.6zM462.5 272.2c-1.4 7.9-7.8 14.4-16.4 13.1-7.7-1.2-13.4-8.6-12.1-16.4.6-3.9 2.8-7.4 6.1-9.6 3.4-2.3 5.7-3.1 10.2-2.4 8.7 1.4 12.9 9.2 12 17.3-.4 4.1 3.8 7.5 7.5 7.5 4.4 0 7.1-3.4 7.5-7.5 1.7-15.2-9.2-29.6-24.3-32-14.7-2.3-30.9 7.4-33.6 24.1-2.5 15.4 7.6 30.1 22.8 33.5 15.9 3.5 32-7.6 34.9-23.5C478.6 266.7 464.1 262.7 462.5 272.2z">
    </path>
    <path fill="#030303" d="M482.9,102.6c-40.7,0-81.4,0-122,0c-4.1,0-7.5,3.4-7.5,7.5c0,25.3,0,50.5,0,75.8c0,4.1,3.4,7.5,7.5,7.5
						c13.8,0,27.7,0,41.5,0c-2.5-2.5-5-5-7.5-7.5c0,14.9,0,29.8,0,44.7c2.5-2.5,5-5,7.5-7.5c-13.8,0-27.7,0-41.5,0
						c-4.1,0-7.5,3.4-7.5,7.5c0,30.5,0,60.9,0,91.4c0,4.1,3.4,7.5,7.5,7.5c23,0,46,0,69,0c14,0,28.1,0,42.1,0
						c11.6,0,22.9,0.4,30.8-10.1c5.5-7.4,4.8-16.1,4.8-24.8c0-11.9,0-23.9,0-35.8c0-31.7,0-63.3,0-95c0-10.6,0-21.3,0-31.9
						c0-1.6,0-3.1,0-4.7C507.5,113.4,496.3,103.1,482.9,102.6c-9.7-0.4-9.6,14.6,0,15c10.5,0.4,9.6,10.5,9.6,18
						c0,11.4,0,22.8,0,34.2c0,31.7,0,63.4,0,95.1c0,11,0,22,0,32.9c0,7.1,0.3,16.7-9.7,16.7c-23.9,0-47.9,0-71.8,0
						c-16.7,0-33.4,0-50.1,0c2.5,2.5,5,5,7.5,7.5c0-30.5,0-60.9,0-91.4c-2.5,2.5-5,5-7.5,7.5c13.8,0,27.7,0,41.5,0
						c4.1,0,7.5-3.4,7.5-7.5c0-14.9,0-29.8,0-44.7c0-4.1-3.4-7.5-7.5-7.5c-13.8,0-27.7,0-41.5,0c2.5,2.5,5,5,7.5,7.5
						c0-25.3,0-50.5,0-75.8c-2.5,2.5-5,5-7.5,7.5c40.7,0,81.4,0,122,0C492.6,117.6,492.6,102.6,482.9,102.6z"></path>
    <path fill="#6FCCDD" d="M469.9,271.1c0,1.1-0.1,2.1-0.2,3.1c-1.5,10.5-10.6,18.7-21.6,18.7c-12,0-21.8-9.8-21.8-21.8
					c0-10.5,7.5-19.3,17.4-21.4h0c1.4-0.3,2.9-0.4,4.4-0.4C460.2,249.3,469.9,259,469.9,271.1z"></path>
    <path fill="#030303" d="M462.4,271.1c-0.3,8-6.3,14.1-14.3,14.3c-8,0.3-14.1-6.7-14.3-14.3c-0.1-4.1,1.8-7.7,4.6-10.5
						c1.3-1.3,3-2.3,4.7-2.9c1.3-0.5,2.4-0.8,5.1-0.9C456.1,256.5,462.2,263.4,462.4,271.1c0.3,9.6,15.3,9.7,15,0
						c-0.5-16-12.2-27.8-27.9-29.3c-15.2-1.4-29.1,11.7-30.6,27.8c-1.6,16.4,12.6,29.3,27.9,30.7c16.9,1.6,30.1-13.4,30.7-29.3
						C477.8,261.4,462.8,261.4,462.4,271.1z"></path>
    <path fill="#6FCCDD" d="M469.9,207.7c0,8.4-4.8,15.7-11.8,19.4h0c-3,1.6-6.4,2.4-10,2.4c-12,0-21.8-9.8-21.8-21.8
					c0-12,9.8-21.8,21.8-21.8c6.1,0,11.6,2.5,15.5,6.5h0C467.5,196.3,469.9,201.7,469.9,207.7z"></path>
    <path fill="#030303" d="M462.4,207.7c-0.2,5.7-3.1,10.1-8,12.9c1.3-0.3,2.5-0.7,3.8-1c-3.4,0-6.5,2.3-10,2.4
						c-2.7,0.1-5.3-0.8-7.6-2.2c-4.8-2.7-7.4-8.8-6.6-14.2c0.9-5.9,5.2-10.2,10.8-11.8c2.8-0.8,6.2-0.5,8.9,0.6
						c3.6,1.5,5.8,5.5,10,5.5c-1.8-0.7-3.5-1.5-5.3-2.2C461,200.6,462.3,203.8,462.4,207.7c0.4,9.6,15.4,9.7,15,0
						c-0.2-5.1-1.4-9.7-3.7-14.3c-1.9-3.7-5.5-8.5-10.1-8.5c1.8,0.7,3.5,1.5,5.3,2.2c-16.8-16-46-7.8-49.7,15.9
						c-1.6,10.2,2.1,20.5,10.1,27.2c9.4,7.9,21.8,8.5,32.6,3.4c-1.3,0.3-2.5,0.7-3.8,1c5.4,0,10.9-5.8,13.8-9.9
						c3.6-5,5.3-10.8,5.5-17C477.8,198,462.8,198.1,462.4,207.7z"></path>
    <path fill="none" stroke="#030303" stroke-miterlimit="10" d="M402.4 227.9"></path>
    <path fill="#69BD45" d="M69.1,140.8v164.6c0,9.1,7.4,16.5,16.5,16.5h201.6V140.8H69.1z M130.1,243.2c-1.7,1.5-3.7,2.8-5.8,3.8
					c-3.1,1.4-6.5,2.2-10,2.2c-9.2,0-17.2-5.2-21.2-12.9c-1.8-3.3-2.7-7.1-2.7-11.1s1-7.8,2.7-11.1c4-7.6,12-12.9,21.2-12.9
					c0.4,0,0.7,0,1.1,0c3.2,0.1,6.2,0.9,8.9,2.2c8.2,3.8,13.9,12.1,13.9,21.8C138.2,232.4,135.1,238.8,130.1,243.2z">
    </path>
    <path fill="#030303" d="M124.8,237.9c-7.2,6-18.3,4.7-23.9-2.8c-5.7-7.7-3.4-18.5,4.5-23.7c7.4-4.9,16.5-2.3,22,4
						C133.3,222.1,130.8,232.3,124.8,237.9c-7.1,6.6,3.6,17.2,10.6,10.6c12-11.2,13.6-29.7,3.4-42.7c-10-12.9-28.7-15.5-42.2-6.6
						c-14.7,9.7-18.1,30.5-7.8,44.6c11.3,15.4,32.3,16.5,46.6,4.7C142.9,242.4,132.2,231.8,124.8,237.9z"></path>
    <path fill="#030303" d="M61.6,140.8c0,49.7,0,99.3,0,149c0,6.5-0.8,13.8,0.5,20.3c2.3,11.1,12.2,19.3,23.5,19.3
						c1.5,0,3,0,4.5,0c24,0,48,0,72,0c41.7,0,83.4,0,125,0c4.1,0,7.5-3.4,7.5-7.5c0-49.9,0-99.8,0-149.7c0-10.5,0-20.9,0-31.4
						c0-4.1-3.4-7.5-7.5-7.5c-48.1,0-96.2,0-144.4,0c-24.6,0-49.1,0-73.7,0c-9.7,0-9.7,15,0,15c48.1,0,96.2,0,144.4,0
						c24.6,0,49.1,0,73.7,0c-2.5-2.5-5-5-7.5-7.5c0,49.9,0,99.8,0,149.7c0,10.5,0,20.9,0,31.4c2.5-2.5,5-5,7.5-7.5
						c-49.2,0-98.4,0-147.6,0c-18,0-36,0-54,0c-10,0-9-10.2-9-17c0-11.7,0-23.5,0-35.2c0-40.4,0-80.9,0-121.3
						C76.6,131.2,61.6,131.2,61.6,140.8z"></path>
    <path fill="#736357" d="M469.9,322v46.2c0,0.3,0,0.6,0,0.9c0,0.3,0,0.6-0.1,0.8c-0.9,8.6-8.2,15.4-17,15.4H29.1
					c-9.5,0-17.1-7.7-17.1-17.1V137.6c0-9.4,7.7-17.1,17.1-17.1h40v38.4H57.6c-9.5,0-17.1,7.7-17.1,17.1v83.1
					c0,9.5,7.7,17.1,17.1,17.1h11.4v29.2c0,9.1,7.4,16.5,16.5,16.5H469.9z"></path>
    <path fill="#030303" d="M462.4,322c0,12.4,0,24.7,0,37.1c0,8,0.9,18.8-10.3,18.8c-12,0-23.9,0-35.9,0c-57.4,0-114.9,0-172.3,0
						c-58.2,0-116.5,0-174.7,0c-12.9,0-25.9,0-38.8,0c-6.5,0-11-4.1-11-10.7c0-6.5,0-13.1,0-19.6c0-59,0-118.1,0-177.1
						c0-10.9,0-21.7,0-32.6c0-11.2,12.4-9.7,20-9.7c9.9,0,19.8,0,29.6,0c-2.5-2.5-5-5-7.5-7.5c0,12.8,0,25.6,0,38.4
						c2.5-2.5,5-5,7.5-7.5c-7.2,0-14.8-0.8-21.6,2.2c-8.9,4-14.5,13.1-14.5,22.8c0,11.2,0,22.5,0,33.7c0,14.4,0,28.9,0,43.3
						c0,4.4-0.1,8.6,1.1,12.9c3,10.8,13.6,17.5,24.4,17.5c3.5,0,7.1,0,10.6,0c-2.5-2.5-5-5-7.5-7.5c0,5.9,0,11.7,0,17.6
						c0,6.5-0.8,13.8,1.6,20c4.1,11,14.4,15.6,25.4,15.6c15.6,0,31.2,0,46.7,0c61.2,0,122.4,0,183.6,0c47.9,0,95.8,0,143.8,0
						c2.4,0,4.8,0,7.2,0c9.7,0,9.7-15,0-15c-35.5,0-71,0-106.5,0c-63.8,0-127.7,0-191.5,0c-22.5,0-45.1,0-67.6,0
						c-5.4,0-10.8,0-16.3,0c-0.8,0-1.6,0-2.4,0c-7.2,0-9-6.3-9-12.2c0-8.7,0-17.4,0-26c0-4.1-3.4-7.5-7.5-7.5
						c-5.1,0-11.7,1.2-16.3-1.3c-4.4-2.3-4.8-6.9-4.8-11.2c0-12.7,0-25.4,0-38.2c0-12.9,0-25.8,0-38.8c0-4.1,0-8.2,3.7-10.9
						c4.5-3.4,12.1-2,17.4-2c4.1,0,7.5-3.4,7.5-7.5c0-12.8,0-25.6,0-38.4c0-4.1-3.4-7.5-7.5-7.5c-12.3,0-24.7,0-37,0
						c-8.3,0-16,2.1-21.6,8.6c-4.1,4.8-6,10.7-6,17c0,18.9,0,37.8,0,56.8c0,55.7,0,111.3,0,167c0,1.8,0,3.7,0,5.5
						c0,8.7,4.3,15.8,11.1,20.9c5.4,4,12,4,18.3,4c15.9,0,31.8,0,47.7,0c60.4,0,120.8,0,181.3,0c54.6,0,109.2,0,163.9,0
						c8.7,0,17.4,0,26,0c11.9,0,22.6-9.1,24.3-20.9c0.6-4.5,0.3-9.2,0.3-13.7c0-12.1,0-24.2,0-36.2
						C477.4,312.3,462.4,312.3,462.4,322z"></path>
    <g>
        <path fill="#544741" d="M448.1,385.3V445c0,9.5-7.7,17.1-17.1,17.1H29.1c-9.5,0-17.1-7.7-17.1-17.1v-4.2
					c0-9.5,7.7-17.1,17.1-17.1h160.5v-38.4H448.1z"></path>
        <path fill="#030303" d="M440.6,385.3c0,11.6,0,23.2,0,34.8c0,6.8,0,13.7,0,20.5c0,5,0.1,9.7-4.8,12.7c-3,1.9-7.8,1.3-11.2,1.3
						c-6.8,0-13.6,0-20.4,0c-55.9,0-111.8,0-167.7,0c-57.8,0-115.6,0-173.4,0c-11.3,0-22.6,0-33.9,0c-13.4,0-13.4-23.4,0-23.4
						c7,0,14,0,21.1,0c46.4,0,92.8,0,139.2,0c4.1,0,7.5-3.4,7.5-7.5c0-12.8,0-25.6,0-38.4c-2.5,2.5-5,5-7.5,7.5
						c45.1,0,90.2,0,135.3,0c41.1,0,82.2,0,123.3,0c9.7,0,9.7-15,0-15c-45.1,0-90.2,0-135.3,0c-41.1,0-82.2,0-123.3,0
						c-4.1,0-7.5,3.4-7.5,7.5c0,12.8,0,25.6,0,38.4c2.5-2.5,5-5,7.5-7.5c-49.4,0-98.7,0-148.1,0c-8.5,0-17-0.8-24.8,3.4
						C7,424.7,4.5,435,4.5,445c0,12.5,9.7,23,22,24.4c10.1,1.2,20.9,0.2,31,0.2c56.4,0,112.7,0,169.1,0c57.4,0,114.8,0,172.2,0
						c10.7,0,21.5,0,32.2,0c9.6,0,18.6-5.7,22.5-14.5c2.4-5.3,2.2-10.7,2.2-16.4c0-14.9,0-29.7,0-44.6c0-3,0-6,0-9
						C455.6,375.6,440.6,375.6,440.6,385.3z"></path>
    </g>
    <g>
        <path fill="#030303" d="M279.7,296.5c0,0.1,0,0.1,0,0.2c-0.1,1.9,0.9,4,2.2,5.3c1.4,1.4,3.3,2.2,5.3,2.2c2,0,3.9-0.8,5.3-2.2
					c1.5-1.5,2.1-3.3,2.2-5.3c0-0.1,0-0.1,0-0.2c0.1-1.9-0.9-4-2.2-5.3c-1.4-1.4-3.3-2.2-5.3-2.2s-3.9,0.8-5.3,2.2
					C280.4,292.6,279.8,294.4,279.7,296.5L279.7,296.5z"></path>
    </g>
    <g>
        <path fill="#030303" d="M115,385.3c0,12.8,0,25.6,0,38.4c0,9.7,15,9.7,15,0c0-12.8,0-25.6,0-38.4C130,375.6,115,375.6,115,385.3
					L115,385.3z"></path>
    </g>
    <g>
        <path fill="#030303" d="M82.8,385.3c0,12.8,0,25.6,0,38.4c0,9.7,15,9.7,15,0c0-12.8,0-25.6,0-38.4
					C97.8,375.6,82.8,375.6,82.8,385.3L82.8,385.3z"></path>
    </g>
</svg>