<svg xmlns="http://www.w3.org/2000/svg" enable-background="new 0 0 64 64" viewBox="0 0 64 64" id="cotton-material">
	<path fill="#e6e9ed" d="M48.4,45.1c1.8,0.4,3.1,2,3.1,3.9c0,2.2-1.8,4-4,4h-3h-3c-2.2,0-4-1.8-4-4c0-1.9,1.3-3.5,3.1-3.9
			c0.4-1.8,2-3.1,3.9-3.1S48,43.3,48.4,45.1z"></path>
	<path fill="#656d78"
		d="M47.5,53c2.2,0,4-1.8,4-4c0-1.9-1.3-3.5-3.1-3.9c-0.4-1.8-2-3.1-3.9-3.1s-3.5,1.3-3.9,3.1
			c-1.8,0.4-3.1,2-3.1,3.9c0,2.2,1.8,4,4,4h3H47.5z M44.5,37c7.2,0,13,5.8,13,13s-5.8,13-13,13s-13-5.8-13-13S37.3,37,44.5,37z"></path>
	<path fill="#ccd1d9" d="M44.5,9v28c-7.2,0-13,5.8-13,13h-17c4.4,0,8-3.6,8-8V9H44.5z"></path>
	<path fill="#e6e9ed" d="M22.5,42c0-4.4-3.6-8-8-8s-8,3.6-8,8V9c0-4.4,3.6-8,8-8s8,3.6,8,8V42z"></path>
	<path fill="#f5f7fa" d="M14.5,47c2.8,0,5-2.2,5-5s-2.2-5-5-5s-5,2.2-5,5S11.7,47,14.5,47z M14.5,34c4.4,0,8,3.6,8,8s-3.6,8-8,8
			s-8-3.6-8-8S10.1,34,14.5,34z"></path>
	<circle cx="14.5" cy="42" r="2" fill="#f5f7fa"></circle>
	<path fill="#e6e9ed" d="M14.5,47c-2.8,0-5-2.2-5-5s2.2-5,5-5s5,2.2,5,5S17.3,47,14.5,47z M14.5,40c-1.1,0-2,0.9-2,2s0.9,2,2,2
			s2-0.9,2-2S15.6,40,14.5,40z"></path>
	<path d="M14.5,51c-5,0-9-4-9-9s4-9,9-9s9,4,9,9S19.5,51,14.5,51z M14.5,35c-3.9,0-7,3.1-7,7s3.1,7,7,7s7-3.1,7-7S18.4,35,14.5,35
				z"></path>
	<path d="M14.5,45c-1.7,0-3-1.3-3-3s1.3-3,3-3s3,1.3,3,3S16.2,45,14.5,45z M14.5,41c-0.6,0-1,0.4-1,1s0.4,1,1,1s1-0.4,1-1
				S15.1,41,14.5,41z"></path>
	<path
		d="M14.5 48c-3.3 0-6-2.7-6-6s2.7-6 6-6 6 2.7 6 6S17.8 48 14.5 48zM14.5 38c-2.2 0-4 1.8-4 4s1.8 4 4 4 4-1.8 4-4S16.7 38 14.5 38zM31.5 51h-17c-.6 0-1-.4-1-1s.4-1 1-1h17c.6 0 1 .4 1 1S32.1 51 31.5 51zM22.5 10c-.6 0-1-.4-1-1 0-3.9-3.1-7-7-7s-7 3.1-7 7c0 .6-.4 1-1 1s-1-.4-1-1c0-5 4-9 9-9s9 4 9 9C23.5 9.6 23.1 10 22.5 10z">
	</path>
	<path
		d="M22.5 43c-.6 0-1-.4-1-1V9c0-.6.4-1 1-1s1 .4 1 1v33C23.5 42.6 23.1 43 22.5 43zM6.5 43c-.6 0-1-.4-1-1V9c0-.6.4-1 1-1s1 .4 1 1v33C7.5 42.6 7.1 43 6.5 43z">
	</path>
	<path d="M44.5,10h-22c-0.6,0-1-0.4-1-1s0.4-1,1-1h22c0.6,0,1,0.4,1,1S45.1,10,44.5,10z"></path>
	<path d="M44.5,38c-0.6,0-1-0.4-1-1V9c0-0.6,0.4-1,1-1s1,0.4,1,1v28C45.5,37.6,45.1,38,44.5,38z"></path>
	<path d="M44.5,64c-7.7,0-14-6.3-14-14s6.3-14,14-14s14,6.3,14,14S52.2,64,44.5,64z M44.5,38c-6.6,0-12,5.4-12,12s5.4,12,12,12
			s12-5.4,12-12S51.1,38,44.5,38z"></path>
	<path
		d="M47.5 54c-.6 0-1-.4-1-1s.4-1 1-1c1.7 0 3-1.3 3-3 0-1.4-1-2.6-2.3-2.9-.5-.1-.9-.7-.8-1.2s.7-.9 1.2-.8c2.3.5 3.9 2.5 3.9 4.9C52.5 51.8 50.3 54 47.5 54zM41.5 54c-2.8 0-5-2.2-5-5 0-2.3 1.6-4.3 3.9-4.9.5-.1 1.1.2 1.2.8.1.5-.2 1.1-.8 1.2-1.4.3-2.3 1.5-2.3 2.9 0 1.7 1.3 3 3 3 .6 0 1 .4 1 1S42.1 54 41.5 54z">
	</path>
	<path
		d="M48.5 47c-.6 0-1-.4-1-1 0-1.7-1.3-3-3-3s-3 1.3-3 3c0 .6-.4 1-1 1s-1-.4-1-1c0-2.8 2.2-5 5-5s5 2.2 5 5C49.5 46.6 49.1 47 48.5 47zM44.5 54c-2.2 0-4-1.8-4-4 0-.6.4-1 1-1s1 .4 1 1c0 1.1.9 2 2 2 .6 0 1 .4 1 1S45.1 54 44.5 54z">
	</path>
	<path d="M44.5,54c-0.6,0-1-0.4-1-1s0.4-1,1-1c1.1,0,2-0.9,2-2c0-0.6,0.4-1,1-1s1,0.4,1,1C48.5,52.2,46.7,54,44.5,54z">
	</path>
	<path d="M47.5,54h-6c-0.6,0-1-0.4-1-1s0.4-1,1-1h6c0.6,0,1,0.4,1,1S48.1,54,47.5,54z"></path>
	<path d="M44.5,59c-0.6,0-1-0.4-1-1v-8c0-0.6,0.4-1,1-1s1,0.4,1,1v8C45.5,58.6,45.1,59,44.5,59z"></path>
</svg>