<svg xmlns="http://www.w3.org/2000/svg" data-name="Layer 1" viewBox="0 0 100 100" id="payment-method">
    <path fill="none" d="M41.52,37.62a6.13,6.13,0,0,0-5.12,2.76l5.73-2.76Z"></path>
    <path fill="#ced9df"
        d="M77,75.84l10.15-22.1a16.31,16.31,0,0,0-5.76-20.42l-9.73-6.53v6.77a9.3,9.3,0,0,1-9.29,9.29H56.56l5,13.65-1.36.5h0l-1.36.5L53.46,42.85h0l-.34-.94h0l-.1-.27a6.17,6.17,0,0,0-5.77-4H42.13L36.4,40.38a6.09,6.09,0,0,0-.72,1.47h0a6.07,6.07,0,0,0,0,4l10.59,30Z">
    </path>
    <rect width="53.31" height="15.35" x="35.36" y="78.74" fill="#86d1f5" rx="3"></rect>
    <path fill="#333"
        d="M85.67,75.84H80.23L89.82,55A19.21,19.21,0,0,0,83,30.9L71.69,23.29v-11A9.3,9.3,0,0,0,62.4,3H17.7a9.31,9.31,0,0,0-9.3,9.3V33.56a9.31,9.31,0,0,0,9.3,9.29H32.51A8.89,8.89,0,0,0,33,46.79L43.23,75.84H38.36a5.92,5.92,0,0,0-5.91,5.91v9.34A5.92,5.92,0,0,0,38.36,97H85.67a5.92,5.92,0,0,0,5.91-5.91V81.75A5.92,5.92,0,0,0,85.67,75.84Zm3,15.25a3,3,0,0,1-3,3H38.36a3,3,0,0,1-3-3V81.75a3,3,0,0,1,3-3H85.67a3,3,0,0,1,3,3ZM11.31,12.3A6.4,6.4,0,0,1,17.7,5.91H62.4a6.39,6.39,0,0,1,6.38,6.39V33.56a6.38,6.38,0,0,1-6.38,6.38H55.45a9.11,9.11,0,0,0-8.21-5.23H41.52a9,9,0,0,0-8.21,5.23H17.7a6.39,6.39,0,0,1-6.39-6.38ZM35.68,41.86h0a6.2,6.2,0,0,1,5.84-4.23h5.72a6.17,6.17,0,0,1,5.77,4l.1.27h0l.34.94h0L58.87,57.5l1.36-.5,1.36-.5-5-13.65H62.4a9.3,9.3,0,0,0,9.29-9.29V26.79l9.73,6.53a16.31,16.31,0,0,1,5.76,20.42L77,75.84H46.31l-10.59-30A6.07,6.07,0,0,1,35.68,41.86Z">
    </path>
    <path fill="#ec6568"
        d="M17.7,39.94H33.31a9,9,0,0,1,8.21-5.23h5.72a9.11,9.11,0,0,1,8.21,5.23H62.4a6.38,6.38,0,0,0,6.38-6.38V12.3A6.39,6.39,0,0,0,62.4,5.91H17.7a6.4,6.4,0,0,0-6.39,6.39V33.56A6.39,6.39,0,0,0,17.7,39.94ZM62.9,29.65v2.9H17.2v-2.9Zm-47.16-18a1.46,1.46,0,0,1,1.46-1.46H35.49A1.46,1.46,0,0,1,37,11.61V23.32a1.45,1.45,0,0,1-1.46,1.45H17.2a1.45,1.45,0,0,1-1.46-1.45Z">
    </path>
    <rect width="45.71" height="2.91" x="17.2" y="29.65" fill="#fff"></rect>
    <rect width="15.39" height="8.8" x="18.65" y="13.06" fill="#70c8f2"></rect>
    <path fill="#fff"
        d="M17.2,24.77H35.49A1.45,1.45,0,0,0,37,23.32V11.61a1.46,1.46,0,0,0-1.46-1.46H17.2a1.46,1.46,0,0,0-1.46,1.46V23.32A1.45,1.45,0,0,0,17.2,24.77Zm1.45-11.71H34v8.8H18.65Z">
    </path>
</svg>