<svg xmlns="http://www.w3.org/2000/svg" viewBox="0 0 512 512" id="world">
    <path fill="#3279af"
        d="M271 5.5C139.4 13.2 35 122.4 35 256s104.4 242.8 236 250.5c131.6-7.8 236-117 236-250.5S402.6 13.2 271 5.5z">
    </path>
    <path fill="#b3d34c"
        d="M506.2 235.8c-5.9-9.1-10.9-16.9-14-20.3-10.5-11.1-40.6-3.7-51.7-5.2-11.1-1.5-33.2-8.9-41.9-12-8.6-3.1-24.6 6.8-14.2 12 10.5 5.2 17.9 7.1 31.4 7.1s6.8 24 0 38.2c-6.8 14.1-54.2 28.3-67.7 20.9-13.5-7.4-42.5-56.6-47.4-47.4-4.9 9.2 22.8 50.5 32 60.9 9.2 10.5 28.3 8.6 25.2 23.4S334 343 322.3 359c-11.7 16-28.3 115.7-47.4 115.7-19.1 0-40-16.6-59.7-35.7-19.7-19.1-18.5-50.5-18.5-68.3 0-17.8-17.2-54.8-28.3-70.8-11.1-16-56-17.9-72.6-38.8-16.6-20.9-10.4-54.8 3.1-70.2 13.5-15.4 33.2-15.4 45.5-17.2 12.3-1.8 33.2 3.1 34.5 17.2 1.2 14.1 59.7 15.4 67.7 19.1 8 3.7 41.2 6.8 45.6-4.3 4.3-11.1-46.2-20.3-56-28-9.8-7.7 14.2-18.1 25.2-23.7 11.1-5.5 41.9 6.2 50.5 1.9 8.6-4.3-28.3-17.9-42.5-22.2-14.2-4.3-28.9 10.5-43.7 16.6-14.8 6.2-35.7-10.5-48.6-17.2-12.9-6.8-32 21.5-53.6 27.1-21.5 5.5-33.8-12.3-24.6-22.2 9.2-9.8 17.9-3.1 25.2-11.7 7.4-8.6 8-30.2 35.1-34.5 27.1-4.3 55.4 8 77.6 0 22.1-8 19.7-24.6 9.2-24-10.5.6-43.7 14.2-50.5 5.5-6.8-8.6 4.5-25.3 39.1-36.3 33-10.5 43.3 5.3 51.4-30.3 117.9 14.1 210.7 109.9 220.2 229.1z">
    </path>
    <path fill="#ffb30f"
        d="M25 45c0 11-9 20-20 20 11 0 20 9 20 20 0-11 9-20 20-20-11 0-20-9-20-20zm462 422c0-11 9-20 20-20-11 0-20-9-20-20 0 11-9 20-20 20 11 0 20 9 20 20z">
    </path>
    <path fill="#ffe3a9"
        d="M5 397c0-11.9 25.5-27.2 47-27.2s21.5 11.3 21.5 11.3 13-22.2 33-22.2 23.5 11.6 23.5 11.6 17.5-23.4 48-23.4 20.5 28.6 20.5 28.6 13.5-13.1 35-13.1S255 397 255 397H5z">
    </path>
    <path fill="#ffe3a9"
        d="M5 397c0-11.9 25.5-27.2 47-27.2s21.5 11.3 21.5 11.3 13-22.2 33-22.2 23.5 11.6 23.5 11.6 17.5-23.4 48-23.4 20.5 28.6 20.5 28.6 13.5-13.1 35-13.1S255 397 255 397H5zm252-287c0-11.9 6.5-27.2 28-27.2 10.4 0 21.5 7.7 21.5 7.7s12-18.7 32-18.7 27.2 17.7 27.2 17.7S394.5 60 425 60s23.1 30.8 23.1 30.8 10.9-15.4 32.4-15.4S507 110 507 110H257z">
    </path>
    <g fill="#1d4925">
        <path
            d="M19.8 354.9C6.7 323.5 0 290.3 0 256c0-68.4 26.6-132.7 75-181C123.3 26.6 187.6 0 256 0c58.7 0 116 20.3 161.4 57.3l-6.3 7.8C367.4 29.5 312.4 10 256 10 120.4 10 10 120.4 10 256c0 32.9 6.4 64.9 19 95l-9.2 3.9z">
        </path>
        <path
            d="M256 512c-84.7 0-163.8-41.8-211.6-111.9l8.3-5.6C98.6 461.8 174.6 502 256 502c135.6 0 246-110.4 246-246 0-51.7-15.9-101.2-45.9-143.1-1.1-1.5-1.2-3.5-.4-5.2.9-1.7 2.6-2.7 4.4-2.7h40.6c-2.3-8.8-8.1-24.5-20.3-24.5-18.7 0-28.2 13.1-28.3 13.3-1.4 2-4 2.7-6.1 1.7-2.2-1-3.4-3.4-2.8-5.7 0-.1 2.7-11.9-2.9-19-3-3.8-8.2-5.7-15.3-5.7-28.1 0-55.5 27.8-55.8 28.1-1.2 1.2-2.9 1.7-4.5 1.4-1.7-.3-3-1.5-3.7-3-.2-.6-6.3-14.6-22.5-14.6-16.9 0-27.7 16.2-27.8 16.4-.7 1.1-1.9 1.9-3.2 2.2-1.3.3-2.7 0-3.8-.8-.1-.1-10-6.8-18.6-6.8-16.5 0-21.2 10.2-22.5 17.2H440v10H257c-2.8 0-5-2.2-5-5 0-14.8 8.6-32.2 33-32.2 7.8 0 15.6 3.6 20.2 6.1 5.1-6.1 16.6-17 33.3-17 15.2 0 24 8.6 28.3 14.8C376.6 73 399.9 55 425 55c10.4 0 18.2 3.2 23.2 9.5 3.5 4.4 4.9 9.6 5.5 14.3 6.1-4.3 15-8.4 26.8-8.4 25.5 0 31.2 37.2 31.4 38.8.2 1.4-.2 2.9-1.2 4-.9 1.1-2.3 1.7-3.8 1.7h-37.3c27.7 41.9 42.3 90.4 42.3 141 0 68.4-26.6 132.7-75 181C388.7 485.4 324.4 512 256 512z">
        </path>
        <path
            d="M188 352c-5.9-18.4-16.6-39.1-23.6-49.3-4.3-6.2-16.5-10.4-29.3-14.8-15.7-5.4-33.4-11.5-43.1-23.7-18.9-23.7-10.8-60.6 3.3-76.6 12.8-14.6 30.2-16.7 42.9-18.2 2-.2 3.9-.5 5.6-.7 9.1-1.4 23.1.4 32.1 7.5 4.8 3.8 7.6 8.7 8.1 14.2 0 0 .8 3.1 13.7 6.3 9.4 2.4 21.5 3.9 31.3 5.1 11 1.4 16.8 2.2 19.8 3.6 4.9 2.3 25.5 4.9 35.5.8 1.4-.6 2.5-1.3 3-2-2.9-3.8-20.1-9.5-29.6-12.6-10.8-3.6-20.2-6.7-24.6-10.1-4.1-3.2-4.4-6.9-4.2-8.9.9-8.2 12.2-14.4 26.9-21.6 1.2-.6 2.3-1.1 3.3-1.6 7.3-3.7 19.4-1.6 31.1.3 3.6.6 7.9 1.3 11.6 1.7-8.3-4.2-22.6-9.6-33.9-13.1-7.6-2.3-16.4 3-25.7 8.6-4.7 2.8-9.6 5.8-14.6 7.9-14 5.8-30.7-4.2-44.1-12.3-3.2-1.9-6.2-3.7-8.7-5.1-4.3-2.3-12.8 4.3-21 10.6-8.6 6.6-18.3 14.1-29 16.9-15.2 3.9-26.7-2.3-31.4-10.3-4-6.8-3.3-14.7 1.9-20.2 6-6.4 11.9-7.2 16.6-7.9 3.8-.5 6.1-.9 8.5-3.6 1.5-1.8 2.9-4.7 4.4-8 4.5-9.8 11.3-24.5 33.7-28.1 13.1-2.1 26-.5 38.6 1 14 1.7 27.2 3.2 38.1-.7 11-4 14.2-10 13.6-12.8-.1-.4-.3-1.6-2.4-1.5-2.8.2-8.2 1.6-14 3.1-16.7 4.4-34 9-40.7.5-2.9-3.7-3.7-8.4-2.2-13.3 3.6-11.9 19.6-23.1 43.7-30.9 11.2-3.6 19.8-4.3 26.7-4.8 6.9-.5 10.6-.9 13.3-3.1 3.2-2.6 5.7-8.4 8-18.7l9.8 2.2c-6 26.4-14.5 28.3-30.3 29.5-6.4.5-14.3 1.1-24.4 4.4-24.4 7.8-35.3 17.9-37.2 24.3-.7 2.3-.1 3.5.5 4.2 0 0 1.5 1.6 9.8.6 6.3-.8 13.8-2.8 20.5-4.6 6.6-1.7 12.2-3.2 16-3.5 6.4-.4 11.5 3.4 12.8 9.5 1.6 7.9-3.9 18.4-20 24.2-13.1 4.7-27.5 3-42.7 1.2-11.9-1.4-24.1-2.9-35.8-1-17.1 2.7-21.7 12.7-26.2 22.4-1.8 3.9-3.5 7.5-5.9 10.4-4.8 5.6-10.2 6.4-14.6 7-4 .6-7.2 1-10.8 4.8-3 3.2-1.4 6.8-.6 8.2 2.8 4.7 10.1 8.3 20.3 5.7 8.7-2.2 17.5-9.1 25.4-15.1 11.2-8.6 21.8-16.8 31.7-11.6 2.8 1.5 6 3.4 9.3 5.4 11.5 6.9 25.8 15.6 35.1 11.7 4.3-1.8 8.9-4.5 13.3-7.2 10.8-6.5 22-13.2 33.8-9.6 6.8 2.1 17.7 5.9 26.9 9.8 16.5 7 20 10.9 20.3 15 .2 2.8-1.3 5.2-4 6.6-5.5 2.7-14.7 1.2-25.5-.6-9.2-1.5-20.6-3.5-25-1.2l-3.4 1.7c-4.9 2.4-19.5 9.5-21.3 13.4.1.1.2.1.3.2 3 2.3 12.9 5.6 21.6 8.5 20 6.6 32.4 11.1 35.8 18.3 1.1 2.3 1.2 4.7.3 7-1.4 3.5-4.4 6.3-8.9 8.1-12.7 5.1-36.1 2.3-43.4-1-1.7-.8-10.1-1.9-16.9-2.7-29.7-3.7-52.6-7.6-53.7-20.5-.2-2.8-1.6-5.2-4.3-7.3-6.3-5-17.3-6.5-24.4-5.5-1.9.3-3.8.5-5.9.8-11.7 1.4-26.3 3.1-36.6 14.8-11.5 13-18.3 44.4-2.9 63.7 7.9 9.9 23.5 15.3 38.5 20.4 14.5 5 28.1 9.7 34.3 18.6 7.5 10.8 18.8 32.7 24.9 52L188 352zm86.9 127.7c-22 0-45.3-19.8-63.2-37.1-10.8-10.4-17-25.2-19.1-45l9.9-1c1.8 17.4 7.1 30.2 16.1 38.9 16.5 16 37.8 34.3 56.2 34.3.2 0 4.5-.2 12.3-20.1 5.3-13.5 10.2-30.8 15-47.6 6.9-24.3 11.4-39.5 16.1-46 4.5-6.2 10.3-12.1 15.8-17.8 8.6-8.8 17.4-17.9 19.1-25.8.9-4.4-.4-5.7-9-9.5-5-2.2-10.7-4.7-15-9.6-4.9-5.5-14.4-18.9-21.9-31.7-13.6-23.3-12.9-30.9-10.8-34.9 1.2-2.2 3.2-3.6 5.5-3.8 6.2-.6 12.2 6.3 26.5 24.6 7.6 9.7 17 21.7 22.1 24.5 4.4 2.4 17.7 2 34.4-3.3 15.5-5 24.6-11.5 26.4-15.3 6.1-12.7 9-26.3 6.5-30.2-.2-.3-.5-.8-2-.8-13.9 0-22.1-1.8-33.6-7.6-6.5-3.2-7-8.6-5.5-12.1 3.1-7.2 15.4-12 23.5-9 11.2 4 31.3 10.4 40.9 11.8 2.9.4 8 0 13.5-.3 14.4-1 32.3-2.3 41.2 7.1 3.2 3.4 7.6 10.2 13.2 18.8l1.4 2.2-8.4 5.4-1.4-2.2c-5.1-7.9-9.5-14.7-12.1-17.4-5.6-5.9-21.6-4.8-33.2-4-6.2.4-11.6.8-15.5.3-11.1-1.5-32.9-8.7-42.8-12.2-3.2-1.1-8.4 1-10.3 2.8 0 0 .1 0 .1.1 10.1 5 16.9 6.6 29.2 6.6 4.5 0 8.2 1.9 10.4 5.4 7.1 11.3-3.7 35.2-5.9 39.9-5.1 10.8-24.4 18-32.4 20.5-14.3 4.6-32.9 7.7-42.2 2.6-6.9-3.8-15.8-15.1-25.2-27.1-4.4-5.6-10.3-13.1-14.5-17.5 1.2 3.9 3.9 10.5 10.3 21.3 7.1 12 15.8 24.2 20.2 29.2 2.8 3.2 7.3 5.2 11.6 7 7.4 3.2 17.5 7.7 14.8 20.7-2.2 10.7-11.7 20.5-21.7 30.7-5.3 5.5-10.8 11.1-14.9 16.7-3.9 5.4-9.3 24.4-14.5 42.8-13.4 46.4-22.5 74.7-37.1 74.7zM25 90c-2.8 0-5-2.2-5-5 0-8.3-6.7-15-15-15-2.8 0-5-2.2-5-5s2.2-5 5-5c8.3 0 15-6.7 15-15 0-2.8 2.2-5 5-5s5 2.2 5 5c0 8.3 6.7 15 15 15 2.8 0 5 2.2 5 5s-2.2 5-5 5c-8.3 0-15 6.7-15 15 0 2.8-2.2 5-5 5zm-5-25c1.9 1.4 3.6 3.1 5 5 1.4-1.9 3.1-3.6 5-5-1.9-1.4-3.6-3.1-5-5-1.4 1.9-3.1 3.6-5 5zm467 407c-2.8 0-5-2.2-5-5 0-8.3-6.7-15-15-15-2.8 0-5-2.2-5-5s2.2-5 5-5c8.3 0 15-6.7 15-15 0-2.8 2.2-5 5-5s5 2.2 5 5c0 8.3 6.7 15 15 15 2.8 0 5 2.2 5 5s-2.2 5-5 5c-8.3 0-15 6.7-15 15 0 2.8-2.2 5-5 5zm-5-25c1.9 1.4 3.6 3.1 5 5 1.4-1.9 3.1-3.6 5-5-1.9-1.4-3.6-3.1-5-5-1.4 1.9-3.1 3.6-5 5z">
        </path>
        <path
            d="M255 402H5c-2.8 0-5-2.2-5-5 0-16.3 29.8-32.2 52-32.2 12 0 18.5 3.3 22.1 6.8 6-7.3 17.3-17.8 32.4-17.8 12.9 0 20.1 4.4 24 8.5 7.4-7.4 23.7-20.3 47.5-20.3 10.7 0 18.5 3.2 23 9.6 3 4.2 3.9 9 4.1 13.3 6.7-3.7 16.4-7.4 28.5-7.4 11 0 19.4 7.4 23.6 20.8 2.9 9.3 2.9 18.4 2.9 18.8-.1 2.7-2.3 4.9-5.1 4.9zM12.2 392h237.5c-.9-8.4-4.1-24.5-16.2-24.5-19.1 0-31.4 11.6-31.5 11.7-1.7 1.6-4.2 1.9-6.2.6-1.9-1.3-2.8-3.7-2-5.8 1-2.9 2.7-11.4-1-16.6-2.5-3.5-7.5-5.3-14.8-5.3-27.7 0-43.8 21.2-44 21.4-1.2 1.5-3.1 2.4-5 2-1.9-.4-3.3-1.7-3.8-3.5-.3-.8-3.6-8.1-18.7-8.1-16.9 0-28.6 19.5-28.7 19.7-1.2 2-3.6 3.2-5.9 2.5-2.2-.7-3.6-2.6-3.5-4.9-.3-2.3-4.2-6.3-16.5-6.3-16.4-.1-33.7 9.4-39.7 17.1z">
        </path>
    </g>
</svg>