<?xml version="1.0" ?><!-- Uploaded to: SVG Repo, www.svgrepo.com, Generator: SVG Repo Mixer Tools -->
<svg width="800px" height="800px" viewBox="0 0 50 50" data-name="Layer 1" id="Layer_1" xmlns="http://www.w3.org/2000/svg"><defs><style>.cls-1{fill:#231f20;}.cls-2{fill:#ffffff;}.cls-3{fill:#00a1d3;}.cls-4{fill:#d12200;}</style></defs><title/><rect class="cls-1" height="41" rx="2.5" width="28.707" x="4.5" y="4.5"/><rect class="cls-2" height="39" rx="1.5" width="26.707" x="5.5" y="5.5"/><path class="cls-1" d="M18.854,16.467a3.3,3.3,0,1,0-3.3-3.3A3.308,3.308,0,0,0,18.854,16.467Z"/><path class="cls-3" d="M18.854,10.86a2.3,2.3,0,1,1-2.3,2.3A2.306,2.306,0,0,1,18.854,10.86Z"/><path class="cls-1" d="M17.076,27.063h3.555a2.855,2.855,0,0,0,2.852-2.852V21.933a4.63,4.63,0,1,0-9.259,0v2.278A2.855,2.855,0,0,0,17.076,27.063Z"/><path class="cls-3" d="M15.224,21.933a3.63,3.63,0,1,1,7.259,0v2.278a1.854,1.854,0,0,1-1.852,1.852H17.076a1.854,1.854,0,0,1-1.852-1.852Z"/><path class="cls-1" d="M26.851,37.239H10.856a.5.5,0,0,0,0,1h16a.5.5,0,1,0,0-1Z"/><path class="cls-1" d="M26.851,31.692H10.856a.5.5,0,0,0,0,1h16a.5.5,0,0,0,0-1Z"/><path class="cls-1" d="M41.792,8.22a3.711,3.711,0,0,0-3.707,3.707V31.912a.511.511,0,0,0,.034.182l2.86,7.344a.987.987,0,0,0,.313.469V41.28a.5.5,0,0,0,1,0V39.91a.929.929,0,0,0,.3-.444l2.87-7.372a.516.516,0,0,0,.034-.183V11.927A3.711,3.711,0,0,0,41.792,8.22Z"/><polygon class="cls-4" points="43.192 35.18 40.394 35.18 39.213 32.146 44.372 32.146 43.192 35.18"/><rect class="cls-4" height="16.596" width="5.415" x="39.085" y="14.551"/><path class="cls-4" d="M41.792,9.22A2.711,2.711,0,0,1,44.5,11.927v1.624H39.085V11.927A2.711,2.711,0,0,1,41.792,9.22Z"/><polygon class="cls-4" points="41.793 38.773 40.783 36.18 42.802 36.18 41.793 38.773"/></svg>